<svg width="30" height="30" viewBox="0 0 30 30" fill="none" xmlns="http://www.w3.org/2000/svg">
<g id="fluent:shield-video-24-filled">
<g id="Group">
<path id="Vector" d="M4.18292 9.03421C4.15963 8.81371 4.22489 8.59299 4.36434 8.42061C4.50379 8.24823 4.70601 8.1383 4.92651 8.11501C7.8785 7.80325 10.6447 6.45411 13.2393 4.04256C13.3718 3.91943 13.5407 3.84259 13.7206 3.8236C13.9005 3.8046 14.0817 3.84446 14.237 3.93719C17.2781 5.75354 20.2651 6.49507 23.2171 6.1833C23.4376 6.16001 23.6583 6.22527 23.8307 6.36472C24.0031 6.50417 24.113 6.70639 24.1363 6.92688L24.7509 12.7466C24.7721 12.9473 24.7886 13.1461 24.8007 13.3455C24.2021 12.856 23.4715 12.5553 22.7016 12.4819C21.9318 12.4084 21.1575 12.5653 20.4771 12.9328C19.7966 13.3003 19.2407 13.8617 18.88 14.5457C18.5193 15.2297 18.3699 16.0056 18.451 16.7746L18.4569 16.83C17.8444 17.0239 17.3177 17.4235 16.966 17.961C16.6143 18.4986 16.4591 19.1412 16.5267 19.7801L17.112 25.3227C17.1179 25.3781 17.1246 25.4312 17.1336 25.484C16.8819 25.6272 16.6254 25.7664 16.3597 25.9043C16.1722 26.0018 15.9548 26.0248 15.7511 25.9685C9.09229 24.1252 5.38293 20.3965 4.79756 14.8539L4.18292 9.03421ZM19.6766 17.7661L19.5595 16.6575C19.4819 15.9225 19.6994 15.1868 20.1643 14.6122C20.6291 14.0376 21.3032 13.6712 22.0382 13.5936C22.7731 13.5159 23.5089 13.7335 24.0835 14.1983C24.6581 14.6631 25.0245 15.3372 25.1021 16.0722L25.2192 17.1807L25.7735 17.1222C26.2145 17.0756 26.6559 17.2061 27.0007 17.485C27.3454 17.7639 27.5653 18.1683 27.6119 18.6093L28.1972 24.1519C28.2438 24.5929 28.1133 25.0344 27.8344 25.3791C27.5555 25.7239 27.1511 25.9437 26.7101 25.9903L20.0589 26.6928C19.6179 26.7393 19.1765 26.6088 18.8317 26.3299C18.487 26.051 18.2671 25.6466 18.2206 25.2056L17.6352 19.663C17.5886 19.222 17.7191 18.7806 17.998 18.4358C18.2769 18.091 18.6814 17.8712 19.1224 17.8246L19.6766 17.7661ZM21.2223 16.4819L21.3394 17.5905L23.5564 17.3563L23.4394 16.2478C23.4083 15.9538 23.2617 15.6842 23.0319 15.4982C22.8021 15.3123 22.5078 15.2253 22.2138 15.2563C21.9198 15.2874 21.6501 15.434 21.4642 15.6638C21.2783 15.8936 21.1913 16.1879 21.2223 16.4819ZM24.0247 21.7904C23.9937 21.4964 23.8471 21.2268 23.6173 21.0408C23.3874 20.8549 23.0931 20.7679 22.7991 20.7989C22.5051 20.83 22.2355 20.9766 22.0496 21.2064C21.8636 21.4362 21.7766 21.7305 21.8077 22.0245C21.8387 22.3185 21.9853 22.5882 22.2151 22.7741C22.445 22.96 22.7393 23.047 23.0333 23.016C23.3273 22.9849 23.5969 22.8384 23.7828 22.6085C23.9688 22.3787 24.0558 22.0844 24.0247 21.7904Z" fill="#4ADE80"/>
</g>
</g>
</svg>
