<svg width="44" height="44" viewBox="0 0 44 44" fill="none" xmlns="http://www.w3.org/2000/svg">
<g id="pepicons:lock-closed-print">
<g id="Group">
<path id="Vector" opacity="0.8" fill-rule="evenodd" clip-rule="evenodd" d="M17.6 21.219V14.3C17.6 12.2579 18.4113 10.2993 19.8553 8.85531C21.2993 7.41128 23.2579 6.60004 25.3 6.60004C27.3422 6.60004 29.3007 7.41128 30.7448 8.85531C32.1888 10.2993 33 12.2579 33 14.3V21.219C36.1812 22.165 38.5 25.113 38.5 28.6V35.2C38.5 37.2422 37.6888 39.2007 36.2448 40.6448C34.8007 42.0888 32.8422 42.9 30.8 42.9H19.8C17.7579 42.9 15.7993 42.0888 14.3553 40.6448C12.9113 39.2007 12.1 37.2422 12.1 35.2V28.6C12.1003 26.9417 12.6357 25.3277 13.6266 23.9979C14.6175 22.6681 16.011 21.6935 17.6 21.219ZM20.9 20.9V14.3C20.9 13.1331 21.3636 12.0139 22.1888 11.1888C23.0139 10.3636 24.1331 9.90004 25.3 9.90004C26.467 9.90004 27.5861 10.3636 28.4113 11.1888C29.2365 12.0139 29.7 13.1331 29.7 14.3V20.9H20.9Z" fill="#97EDFF"/>
<path id="Vector_2" fill-rule="evenodd" clip-rule="evenodd" d="M16.5 27.5C16.5 28.667 16.9636 29.7861 17.7887 30.6113C18.6139 31.4365 19.733 31.9 20.9 31.9C22.067 31.9 23.1861 31.4365 24.0113 30.6113C24.8364 29.7861 25.3 28.667 25.3 27.5C25.3 26.3331 24.8364 25.2139 24.0113 24.3888C23.1861 23.5636 22.067 23.1 20.9 23.1C19.733 23.1 18.6139 23.5636 17.7887 24.3888C16.9636 25.2139 16.5 26.3331 16.5 27.5ZM23.1 27.5C23.1 28.0835 22.8682 28.6431 22.4556 29.0557C22.0431 29.4683 21.4835 29.7 20.9 29.7C20.3165 29.7 19.7569 29.4683 19.3444 29.0557C18.9318 28.6431 18.7 28.0835 18.7 27.5C18.7 26.9166 18.9318 26.357 19.3444 25.9444C19.7569 25.5318 20.3165 25.3 20.9 25.3C21.4835 25.3 22.0431 25.5318 22.4556 25.9444C22.8682 26.357 23.1 26.9166 23.1 27.5Z" fill="#0A6375"/>
<path id="Vector_3" fill-rule="evenodd" clip-rule="evenodd" d="M26.4 16.5H15.4C13.3578 16.5 11.3993 17.3112 9.95529 18.7553C8.51126 20.1993 7.70001 22.1578 7.70001 24.2V30.8C7.70001 32.8422 8.51126 34.8007 9.95529 36.2447C11.3993 37.6888 13.3578 38.5 15.4 38.5H26.4C28.4422 38.5 30.4007 37.6888 31.8447 36.2447C33.2888 34.8007 34.1 32.8422 34.1 30.8V24.2C34.1 22.1578 33.2888 20.1993 31.8447 18.7553C30.4007 17.3112 28.4422 16.5 26.4 16.5ZM9.90001 24.2C9.90001 22.7413 10.4795 21.3424 11.5109 20.3109C12.5424 19.2795 13.9413 18.7 15.4 18.7H26.4C27.8587 18.7 29.2576 19.2795 30.2891 20.3109C31.3205 21.3424 31.9 22.7413 31.9 24.2V30.8C31.9 32.2587 31.3205 33.6576 30.2891 34.6891C29.2576 35.7205 27.8587 36.3 26.4 36.3H15.4C13.9413 36.3 12.5424 35.7205 11.5109 34.6891C10.4795 33.6576 9.90001 32.2587 9.90001 30.8V24.2Z" fill="#0A6375"/>
<path id="Vector_4" d="M15.4 17.6C15.4 17.8918 15.2841 18.1715 15.0778 18.3778C14.8715 18.5841 14.5918 18.7 14.3 18.7C14.0083 18.7 13.7285 18.5841 13.5222 18.3778C13.3159 18.1715 13.2 17.8918 13.2 17.6V9.90001C13.2 8.88884 13.3992 7.88756 13.7861 6.95335C14.1731 6.01914 14.7403 5.1703 15.4553 4.45529C16.1703 3.74028 17.0191 3.1731 17.9533 2.78614C18.8876 2.39918 19.8888 2.20001 20.9 2.20001C21.9112 2.20001 22.9125 2.39918 23.8467 2.78614C24.7809 3.1731 25.6297 3.74028 26.3447 4.45529C27.0597 5.1703 27.6269 6.01914 28.0139 6.95335C28.4008 7.88756 28.6 8.88884 28.6 9.90001V17.6C28.6 17.8918 28.4841 18.1715 28.2778 18.3778C28.0715 18.5841 27.7917 18.7 27.5 18.7C27.2083 18.7 26.9285 18.5841 26.7222 18.3778C26.5159 18.1715 26.4 17.8918 26.4 17.6V9.90001C26.4 8.44132 25.8205 7.04238 24.7891 6.01093C23.7576 4.97948 22.3587 4.40001 20.9 4.40001C19.4413 4.40001 18.0424 4.97948 17.0109 6.01093C15.9795 7.04238 15.4 8.44132 15.4 9.90001V17.6Z" fill="#0A6375"/>
</g>
</g>
</svg>
