<svg width="27" height="17" viewBox="0 0 27 17" fill="none" xmlns="http://www.w3.org/2000/svg">
<g id="Components---Sprint-3">
<g id="assets-/-logo-/-mastercard-/-symbol">
<path id="Fill-1" fill-rule="evenodd" clip-rule="evenodd" d="M9.5459 14.8864H16.622V2.11356H9.5459V14.8864Z" fill="#FF5F00"/>
<path id="Fill-2" fill-rule="evenodd" clip-rule="evenodd" d="M9.99523 8.50015C9.99523 5.90885 11.2031 3.60096 13.084 2.11374C11.7083 1.02591 9.97276 0.376953 8.08626 0.376953C3.62025 0.376953 0 4.01389 0 8.50015C0 12.9864 3.62025 16.6234 8.08626 16.6234C9.97276 16.6234 11.7083 15.9744 13.084 14.8866C11.2031 13.3991 9.99523 11.0915 9.99523 8.50015Z" fill="#EB001B"/>
<path id="Fill-4" fill-rule="evenodd" clip-rule="evenodd" d="M25.9155 13.5336V13.2184H25.8335L25.7394 13.4352L25.645 13.2184H25.563V13.5336H25.6208V13.2958L25.7093 13.5009H25.7692L25.8577 13.2953V13.5336H25.9155ZM25.3963 13.5336V13.2721H25.5015V13.2188H25.2342V13.2721H25.3391V13.5336H25.3963ZM26.168 8.49991C26.168 12.9862 22.5475 16.6231 18.0817 16.6231C16.1952 16.6231 14.4594 15.9742 13.084 14.8863C14.9649 13.3991 16.1727 11.0912 16.1727 8.49991C16.1727 5.90883 14.9649 3.60094 13.084 2.11349C14.4594 1.02566 16.1952 0.376709 18.0817 0.376709C22.5475 0.376709 26.168 4.01365 26.168 8.49991Z" fill="#F79E1B"/>
</g>
</g>
</svg>
